<svg id="Layer_1" data-name="Layer 1" xmlns="http://www.w3.org/2000/svg" xmlns:xlink="http://www.w3.org/1999/xlink" viewBox="0 0 549.23 339.69"><defs><style>.cls-1,.cls-6{fill:#d4145a;}.cls-1,.cls-2{stroke:#d4145a;stroke-miterlimit:10;}.cls-2,.cls-3{fill:#fff;}.cls-4{fill:#a75926;}.cls-5{fill:url(#linear-gradient);}</style><linearGradient id="linear-gradient" x1="727.39" y1="261.02" x2="1027.27" y2="261.02" gradientUnits="userSpaceOnUse"><stop offset="0" stop-color="#a75926" stop-opacity="0.1"/><stop offset="0.11" stop-color="#a85728" stop-opacity="0.13"/><stop offset="0.26" stop-color="#ac512c" stop-opacity="0.21"/><stop offset="0.43" stop-color="#b34634" stop-opacity="0.34"/><stop offset="0.62" stop-color="#bc383f" stop-opacity="0.53"/><stop offset="0.82" stop-color="#c8264c" stop-opacity="0.76"/><stop offset="1" stop-color="#d4145a"/></linearGradient></defs><title>shoe delivery System</title><path class="cls-1" d="M979.4,261.71c-49.6,27.74-41.44,84.17-93.68,88-5.43.57-11.19,5.25-15.35,9.27-1.54,1.78-2,20.5,0,21.3,14.87,16.55,51.35,11.53,83.27,11.53,13-2.75.24-55.89,28.08-80.45,11.76,8.77,5,47.12,6,77.2h5.76l1-70.43a124.72,124.72,0,0,1,10.31-27.57c0-6-12.26-21.74-20.68-27.05A9.59,9.59,0,0,0,979.4,261.71Z" transform="translate(-478.04 -135.28)"/><path class="cls-2" d="M979.4,261.71c-45.6,25.23-45.22,76.05-81.64,85.93,1.6,2.31,6.57,3.28,9.32,3.55,22.08.59,32.64-1.75,41.92-18,7.28-11.87,10.32-24.4,18.56-42.19C970.34,285.21,979.4,270,979.4,261.71Z" transform="translate(-478.04 -135.28)"/><path class="cls-3" d="M926.6,353.45c-10.58-1.18-25.47,1.47-33.12-6.19l-6.4,1.26C895.07,358.78,922.66,359.46,926.6,353.45Z" transform="translate(-478.04 -135.28)"/><path class="cls-3" d="M873.17,370.66c-.3,4.56-.35,8.86,1,11.67,11.25,6.63,23.4,8.29,37.09,7.71-2.46-3-19-4.51-28.79-8C875.89,380.4,877.49,371.38,873.17,370.66Z" transform="translate(-478.04 -135.28)"/><path class="cls-3" d="M983.4,265.22c-2-.23-2.16,1.77-1.92,3.26,5,4,12,14,18.48,18.55C1001.54,282.49,992.08,269.92,983.4,265.22Z" transform="translate(-478.04 -135.28)"/><path class="cls-4" d="M734.87,303.81c13.94-25.26,32.18-40.13,55.78-42.1,3.69,28.43,22.14,53,64.81,48.27,1.46,18.86,3.22,40.35,2.82,49.42-1.63,36.21,18,38.92,20.79,40,35.91,8,58.1,11,52.95,27.23-10.07,3.18-49.43,2.81-73.83-.54C842,421.5,826.89,398.19,817.74,374,795.55,335.44,766,315.22,734.87,303.81Z" transform="translate(-478.04 -135.28)"/><path d="M731.09,309.68c-5.78,4.38-10.77,11.05-14.47,18.57,17.9,12.67,36.43,22.62,59.86,36.5l9.08-6.22c14.83,8.59,28.75,59.8,50.23,68.68,11,8.13,22.09,9.15,43.28,8.89,19,.11,35.23-1,57.4,0,1-3.71-2.54-4.49-6-4.78-13.11.25-19.47,1.07-30,.89-25.11-.46-44.18-.59-52.33-4-28.47-8.7-30.48-54.25-63.27-85.68C774,327.6,741,309.64,731.09,309.68Z" transform="translate(-478.04 -135.28)"/><path class="cls-3" d="M777,268c2.93-.25,3.13,1.93,2.78,3.54-7.24,4.3-17.36,15.22-26.74,20.12C750.7,286.72,764.39,273.08,777,268Z" transform="translate(-478.04 -135.28)"/><path class="cls-3" d="M854.4,389.35c-.31,5.91-.22,11.47,2.07,15,9,8,39.34,5.66,51.28,11,4.81,1,9-.88,6.58-2.7-9.92-4.65-18.69-7.14-44.26-9.14C859.24,401.81,861.52,390.07,854.4,389.35Z" transform="translate(-478.04 -135.28)"/><path class="cls-5" d="M991,386.76C1124.17,199.49,857.4,37.94,727.39,205.33,877.25,71,1092,199.3,991,386.76Z" transform="translate(-478.04 -135.28)"/><path class="cls-4" d="M479.1,394a11.12,11.12,0,0,0,7.58,3.53c4.32,0,6.84-3.77,6.84-9.24,0-5.06-1.74-8-6.16-10.77-5.34-3.14-8.64-7.72-8.64-15.36,0-8.44,4.22-14.71,10.58-14.71a10.4,10.4,0,0,1,7.23,2.66l-1.16,5.7a9.45,9.45,0,0,0-6.22-2.57c-4.46,0-6.16,4.42-6.16,8.12,0,5.06,2,7.56,6.5,10.45,5.54,3.54,8.36,8,8.36,15.92,0,8.36-3.74,15.59-11.46,15.59a12.12,12.12,0,0,1-8.35-3.46Z" transform="translate(-478.04 -135.28)"/><path class="cls-4" d="M503.48,345.44h4.27v24.28h.1a12,12,0,0,1,3.06-5,6.42,6.42,0,0,1,4.37-2c3.15,0,8.2,3.21,8.2,16.64v23.15h-4.27V380.17c0-6.27-1.41-11.57-5.44-11.57-2.77,0-4.95,3.21-5.73,7.07a13.9,13.9,0,0,0-.29,3.37v23.48h-4.27Z" transform="translate(-478.04 -135.28)"/><path class="cls-4" d="M551.69,382.74c0,14.39-6,20.66-11.7,20.66-6.36,0-11.26-7.72-11.26-20,0-13,5.14-20.66,11.65-20.66C547.13,362.73,551.69,370.85,551.69,382.74Zm-18.64.4c0,8.53,3,15,7.13,15s7.14-6.35,7.14-15.12c0-6.59-2-15-7-15S533.05,375.75,533.05,383.14Z" transform="translate(-478.04 -135.28)"/><path class="cls-4" d="M559.46,384.35c.1,9.57,3.79,13.5,8.06,13.5a10.48,10.48,0,0,0,6.51-2l.72,5.06a12.88,12.88,0,0,1-7.81,2.41c-7.24,0-11.56-7.88-11.56-19.61s4.18-21,11-21c7.67,0,9.71,11.17,9.71,18.32,0,1.45-.09,2.58-.14,3.3ZM572,379.29c0-4.51-1.12-11.5-5.93-11.5-4.32,0-6.21,6.59-6.55,11.5Z" transform="translate(-478.04 -135.28)"/><path class="cls-6" d="M591.84,349.06a37.48,37.48,0,0,1,9-1.12c6.07,0,10.39,2.33,13.25,6.75s4.61,10.69,4.61,19.45S617,390.22,614,395.2s-8.1,7.8-14.46,7.8a41.78,41.78,0,0,1-7.68-.64ZM596.07,397a16.37,16.37,0,0,0,4.27.4c9,0,13.94-8.36,13.94-23,0-12.78-4.33-20.9-13.26-20.9a14.63,14.63,0,0,0-4.95.73Z" transform="translate(-478.04 -135.28)"/><path class="cls-6" d="M626.61,384.35c.09,9.57,3.78,13.5,8.06,13.5a10.43,10.43,0,0,0,6.5-2l.73,5.06a12.89,12.89,0,0,1-7.82,2.41c-7.23,0-11.55-7.88-11.55-19.61s4.17-21,11-21c7.67,0,9.71,11.17,9.71,18.32,0,1.45-.1,2.58-.14,3.3Zm12.52-5.06c0-4.51-1.11-11.5-5.92-11.5-4.32,0-6.21,6.59-6.55,11.5Z" transform="translate(-478.04 -135.28)"/><path class="cls-6" d="M648.55,345.44h4.28v57.08h-4.28Z" transform="translate(-478.04 -135.28)"/><path class="cls-6" d="M664.77,352.68c.05,2.41-1,4.34-2.72,4.34-1.5,0-2.57-1.93-2.57-4.34s1.11-4.42,2.67-4.42S664.77,350.19,664.77,352.68ZM660,402.52V363.61h4.27v38.91Z" transform="translate(-478.04 -135.28)"/><path class="cls-6" d="M673,363.61l4.62,21.87c.77,3.53,1.4,6.75,1.89,10h.15c.53-3.21,1.21-6.43,2-10l4.56-21.87h4.47l-9.23,38.91h-4.08l-8.93-38.91Z" transform="translate(-478.04 -135.28)"/><path class="cls-6" d="M696.62,384.35c.1,9.57,3.79,13.5,8.06,13.5a10.48,10.48,0,0,0,6.51-2l.73,5.06a12.91,12.91,0,0,1-7.82,2.41c-7.24,0-11.56-7.88-11.56-19.61s4.18-21,11-21c7.68,0,9.71,11.17,9.71,18.32,0,1.45-.09,2.58-.14,3.3Zm12.53-5.06c.05-4.51-1.12-11.5-5.93-11.5-4.32,0-6.21,6.59-6.55,11.5Z" transform="translate(-478.04 -135.28)"/><path class="cls-6" d="M718.57,375.75c0-4.58-.05-8.52-.2-12.14h3.74l.15,7.64h.19c1.07-5.23,3.64-8.52,6.51-8.52a2.94,2.94,0,0,1,1.21.24v6.67a4,4,0,0,0-1.46-.24c-3,0-5.14,3.78-5.73,9.08-.09,1-.19,2.09-.19,3.3v20.74h-4.22Z" transform="translate(-478.04 -135.28)"/><path class="cls-6" d="M737.21,363.61l5.15,23c.53,2.57,1.11,5.63,1.5,8h.1c.44-2.33.92-5.31,1.5-8.12l4.67-22.83h4.51l-6.41,27.73c-3.06,13.35-5.15,20.18-8.06,24.36-2.09,3.05-4.17,4.26-5.24,4.58l-1.07-5.95a11.27,11.27,0,0,0,3.74-3.45,23.65,23.65,0,0,0,3.59-7.88,7.3,7.3,0,0,0,.34-1.69,10,10,0,0,0-.29-1.85l-8.69-35.85Z" transform="translate(-478.04 -135.28)"/><path d="M666.1,456.54a7.8,7.8,0,0,0,5.32,2.48c3,0,4.8-2.65,4.8-6.48,0-3.55-1.23-5.58-4.33-7.56-3.74-2.2-6.06-5.41-6.06-10.77,0-5.92,3-10.31,7.42-10.31a7.33,7.33,0,0,1,5.08,1.86l-.82,4a6.6,6.6,0,0,0-4.36-1.8c-3.13,0-4.32,3.1-4.32,5.69,0,3.55,1.39,5.3,4.56,7.33,3.88,2.48,5.86,5.58,5.86,11.16,0,5.87-2.62,10.94-8,10.94a8.55,8.55,0,0,1-5.86-2.42Z" transform="translate(-478.04 -135.28)"/><path d="M684,435.23l3.61,16.12c.37,1.81.78,3.95,1,5.59h.07c.31-1.64.65-3.73,1.06-5.7l3.27-16h3.16l-4.49,19.45c-2.15,9.36-3.61,14.15-5.66,17.08a7.78,7.78,0,0,1-3.67,3.22l-.75-4.17a8.11,8.11,0,0,0,2.62-2.43,16.46,16.46,0,0,0,2.52-5.52,5.87,5.87,0,0,0,.24-1.19,6.61,6.61,0,0,0-.21-1.3l-6.09-25.14Z" transform="translate(-478.04 -135.28)"/><path d="M698.35,457.44a6,6,0,0,0,3.95,2c2.18,0,3.21-1.81,3.21-4.06s-.85-3.67-3.07-5a8.52,8.52,0,0,1-4.36-7.73c0-4.39,2.15-8,5.69-8a5.93,5.93,0,0,1,4.05,1.69l-.75,3.61a4.79,4.79,0,0,0-3.37-1.58c-1.77,0-2.76,1.69-2.76,3.72,0,2.26,1,3.27,3.14,4.62,2.86,1.81,4.32,4.18,4.32,8.24,0,4.79-2.25,8.17-6.16,8.17a6.69,6.69,0,0,1-4.64-1.86Z" transform="translate(-478.04 -135.28)"/><path d="M715.86,427.39v7.84h4.29V439h-4.29v14.71c0,3.38.58,5.3,2.25,5.3a4.16,4.16,0,0,0,1.73-.34l.14,3.72a4.76,4.76,0,0,1-2.66.68,3.55,3.55,0,0,1-3.23-2.09c-.85-1.46-1.16-3.89-1.16-7.1V439h-2.55v-3.78h2.55v-6.54Z" transform="translate(-478.04 -135.28)"/><path d="M725,449.77c.06,6.71,2.65,9.48,5.65,9.48a7.27,7.27,0,0,0,4.56-1.41l.51,3.55a9,9,0,0,1-5.48,1.69c-5.07,0-8.1-5.52-8.1-13.76s2.92-14.71,7.73-14.71c5.38,0,6.81,7.84,6.81,12.85,0,1-.07,1.81-.1,2.31Zm8.78-3.55c0-3.15-.78-8.06-4.15-8.06-3,0-4.36,4.62-4.6,8.06Z" transform="translate(-478.04 -135.28)"/><path d="M740.38,442.61c0-2.81,0-5.13-.14-7.38h2.63l.13,4.4h.1c.92-2.6,2.46-5,5.18-5,2.25,0,4,2.25,4.67,5.47H753a11.47,11.47,0,0,1,1.83-3.55,4.4,4.4,0,0,1,3.65-1.92c2.18,0,5.41,2.37,5.41,11.84v16.07H761V447.07c0-5.24-1.16-8.4-3.58-8.4-1.7,0-3,2.08-3.54,4.51a12.79,12.79,0,0,0-.24,2.48v16.86H750.7V446.17c0-4.34-1.16-7.5-3.44-7.5-1.87,0-3.24,2.48-3.71,5a11,11,0,0,0-.24,2.42v16.47h-2.93Z" transform="translate(-478.04 -135.28)"/></svg>