<?xml version="1.0"?>
<svg xmlns="http://www.w3.org/2000/svg" height="512px" viewBox="0 0 512 512" width="512px" class=""><g><path d="m511.996094 175.585938c-.023438-4.640626-2.28125-9.136719-5.996094-11.917969l-58.265625-43.699219v-56.769531c0-16.875-6.574219-32.746094-18.515625-44.695313-11.941406-11.933594-27.8125-18.503906-44.6875-18.503906h-257.0625c-16.875 0-32.746094 6.570312-44.699219 18.511719-11.929687 11.941406-18.503906 27.8125-18.503906 44.6875v56.769531l-58.265625 43.699219c-.027344.019531-.054688.046875-.085938.070312-3.65625 2.789063-5.8867182 7.238281-5.91015575 11.847657 0 .027343-.00390625.054687-.00390625.082031v273.132812c0 34.847657 28.351562 63.199219 63.199219 63.199219h385.601562c34.847657 0 63.199219-28.351562 63.199219-63.199219v-273.132812c0-.027344-.003906-.054688-.003906-.082031zm-29.996094 273.214843c0 6.222657-1.722656 12.046875-4.714844 17.027344-19.933594-13.289063-111.398437-74.269531-167.789062-111.855469l172.503906-145.964844zm-244.410156-82.164062c11.183594-7.457031 25.636718-7.457031 36.824218.003906 45.1875 30.121094 135.402344 90.265625 173.042969 115.359375h-382.914062c37.640625-25.097656 127.855469-85.238281 173.046875-115.363281zm235.351562-190.261719-25.207031 21.328125v-40.234375zm-378.675781-113.175781c0-8.863281 3.457031-17.207031 9.71875-23.472657 6.277344-6.273437 14.617187-9.726562 23.484375-9.726562h257.0625c8.867188 0 17.207031 3.453125 23.476562 9.714844 6.269532 6.277344 9.726563 14.621094 9.726563 23.484375v155.308593c0 1.421876.210937 2.789063.578125 4.089844l-135.328125 114.511719c-17.097656-8.105469-36.875-8.105469-53.96875 0l-135.328125-114.511719c.367188-1.300781.578125-2.667968.578125-4.089844zm-30 134.503906-25.207031-21.328125 25.207031-18.90625zm-34.265625 10.304687 172.503906 145.964844c-56.390625 37.589844-147.855468 98.566406-167.789062 111.855469-2.992188-4.980469-4.714844-10.804687-4.714844-17.027344zm0 0" data-original="#000000" class="active-path" data-old_color="#000000" fill="#AA0000"/><path d="m167.632812 174.601562h16.066407c5.019531 0 9.101562 4.082032 9.101562 9.097657 0 2.433593-.945312 4.710937-2.679687 6.445312-1.710938 1.710938-3.988282 2.65625-6.421875 2.65625h-32.132813c-8.28125 0-15 6.714844-15 15 0 8.285157 6.71875 15 15 15h9.101563v17.132813c0 8.285156 6.714843 15 15 15 8.285156 0 15-6.714844 15-15v-17.757813c7.800781-1.394531 14.972656-5.113281 20.667969-10.820312 7.394531-7.378907 11.464843-17.203125 11.464843-27.65625 0-21.558594-17.539062-39.101563-39.101562-39.101563h-16.066407c-5.015624 0-9.097656-4.082031-9.097656-9.097656 0-2.433594.941406-4.714844 2.675782-6.441406 1.710937-1.714844 3.992187-2.660156 6.421874-2.660156h32.132813c8.285156 0 15-6.714844 15-15 0-8.28125-6.714844-15-15-15h-9.097656v-17.132813c0-8.28125-6.71875-15-15-15-8.285157 0-15 6.71875-15 15v17.761719c-7.800781 1.394531-14.972657 5.113281-20.671875 10.820312-7.390625 7.378906-11.460938 17.199219-11.460938 27.652344-.003906 21.558594 17.539063 39.101562 39.097656 39.101562zm0 0" data-original="#000000" class="active-path" data-old_color="#000000" fill="#AA0000"/><path d="m288.132812 110.332031h80.332032c8.285156 0 15-6.714843 15-15 0-8.28125-6.714844-15-15-15h-80.332032c-8.285156 0-15 6.71875-15 15 0 8.285157 6.714844 15 15 15zm0 0" data-original="#000000" class="active-path" data-old_color="#000000" fill="#AA0000"/><path d="m288.132812 174.601562h80.332032c8.285156 0 15-6.71875 15-15 0-8.285156-6.714844-15-15-15h-80.332032c-8.285156 0-15 6.714844-15 15 0 8.28125 6.714844 15 15 15zm0 0" data-original="#000000" class="active-path" data-old_color="#000000" fill="#AA0000"/><path d="m288.132812 238.867188h80.332032c8.285156 0 15-6.71875 15-15 0-8.285157-6.714844-15-15-15h-80.332032c-8.285156 0-15 6.714843-15 15 0 8.28125 6.714844 15 15 15zm0 0" data-original="#000000" class="active-path" data-old_color="#000000" fill="#AA0000"/></g> </svg>
